<mxfile host="www.draw.io" modified="2020-01-15T07:21:39.928Z" agent="Mozilla/5.0 (Macintosh; Intel Mac OS X 10_15_0) AppleWebKit/537.36 (KHTML, like Gecko) Chrome/79.0.3945.117 Safari/537.36" etag="jurv3sMgP96z8XB_kn2Q" version="12.5.3" type="github">
  <diagram id="2sDEv0wensciOBOWSS-e" name="Page-1">
    <mxGraphModel dx="946" dy="541" grid="1" gridSize="10" guides="1" tooltips="1" connect="1" arrows="1" fold="1" page="1" pageScale="1" pageWidth="827" pageHeight="1169" math="0" shadow="0">
      <root>
        <mxCell id="0"/>
        <mxCell id="1" parent="0"/>
        <mxCell id="uB2dNdaidyjbXl_VxwFR-1" value="" style="rounded=0;whiteSpace=wrap;html=1;" parent="1" vertex="1">
          <mxGeometry x="160" y="360" width="100" height="30" as="geometry"/>
        </mxCell>
        <mxCell id="uB2dNdaidyjbXl_VxwFR-2" value="" style="ellipse;whiteSpace=wrap;html=1;aspect=fixed;" parent="1" vertex="1">
          <mxGeometry x="330" y="70" width="30" height="30" as="geometry"/>
        </mxCell>
        <mxCell id="uB2dNdaidyjbXl_VxwFR-3" value="" style="rounded=1;whiteSpace=wrap;html=1;" parent="1" vertex="1">
          <mxGeometry x="190" y="150" width="110" height="30" as="geometry"/>
        </mxCell>
        <mxCell id="uB2dNdaidyjbXl_VxwFR-4" value="" style="rounded=1;whiteSpace=wrap;html=1;" parent="1" vertex="1">
          <mxGeometry x="400" y="150" width="110" height="30" as="geometry"/>
        </mxCell>
        <mxCell id="Y7yod59N0h33jMctHfkD-1" value="" style="endArrow=classic;html=1;exitX=0;exitY=1;exitDx=0;exitDy=0;entryX=0.5;entryY=0;entryDx=0;entryDy=0;" edge="1" parent="1" source="uB2dNdaidyjbXl_VxwFR-2" target="uB2dNdaidyjbXl_VxwFR-3">
          <mxGeometry width="50" height="50" relative="1" as="geometry">
            <mxPoint x="190" y="90" as="sourcePoint"/>
            <mxPoint x="240" y="40" as="targetPoint"/>
          </mxGeometry>
        </mxCell>
        <mxCell id="Y7yod59N0h33jMctHfkD-2" value="" style="endArrow=classic;html=1;exitX=1;exitY=1;exitDx=0;exitDy=0;entryX=0.5;entryY=0;entryDx=0;entryDy=0;" edge="1" parent="1" source="uB2dNdaidyjbXl_VxwFR-2" target="uB2dNdaidyjbXl_VxwFR-4">
          <mxGeometry width="50" height="50" relative="1" as="geometry">
            <mxPoint x="340" y="270" as="sourcePoint"/>
            <mxPoint x="390" y="220" as="targetPoint"/>
          </mxGeometry>
        </mxCell>
        <mxCell id="Y7yod59N0h33jMctHfkD-3" value="" style="endArrow=classic;html=1;exitX=0.5;exitY=1;exitDx=0;exitDy=0;" edge="1" parent="1" source="uB2dNdaidyjbXl_VxwFR-3" target="uB2dNdaidyjbXl_VxwFR-1">
          <mxGeometry width="50" height="50" relative="1" as="geometry">
            <mxPoint x="180" y="280" as="sourcePoint"/>
            <mxPoint x="230" y="230" as="targetPoint"/>
          </mxGeometry>
        </mxCell>
      </root>
    </mxGraphModel>
  </diagram>
</mxfile>
